<?xml version="1.0" encoding="utf-8"?>
<!-- Generator: Adobe Illustrator 16.0.0, SVG Export Plug-In . SVG Version: 6.00 Build 0)  -->
<!DOCTYPE svg PUBLIC "-//W3C//DTD SVG 1.1//EN" "http://www.w3.org/Graphics/SVG/1.1/DTD/svg11.dtd">
<svg version="1.1" id="Layer_1" xmlns="http://www.w3.org/2000/svg" xmlns:xlink="http://www.w3.org/1999/xlink" x="0px" y="0px"
	 width="863.5px" height="700.167px" viewBox="0 0 863.5 700.167" enable-background="new 0 0 863.5 700.167" xml:space="preserve">
<g>
	<path fill="#FFFFFF" d="M233.582,88.151v-8.865l6.151,9.888h0.605V78.362l1.024-1.019h-3.09l1.024,1.019v7.522l-5.334-8.541h-2.448
		l1.004,1.02v9.79l-1.004,1.023h3.091L233.582,88.151z M224.44,88.531c-2.368,0-3.188-2.83-3.188-5.274
		c0-2.447,0.822-5.277,3.188-5.277c2.387,0,3.209,2.83,3.209,5.277C227.649,85.701,226.827,88.531,224.44,88.531 M219.709,83.258
		c0,3.008,1.705,6.176,4.73,6.176c3.045,0,4.753-3.168,4.753-6.176c0-3.006-1.696-6.176-4.753-6.176
		C221.414,77.082,219.709,80.247,219.709,83.258 M214.36,88.232V78.221h2.245l1.262,1.267v-2.145h-8.322v2.142l1.284-1.265h2.226
		v10.009l-0.923,0.94h3.168L214.36,88.232z M205.598,83.797v3.81c-0.28,0.283-0.841,0.841-1.943,0.841
		c-2.628,0-3.948-2.647-3.948-5.193c0-2.566,1.664-5.193,3.948-5.193c0.6,0,1.043,0.139,1.444,0.562l1.304,1.28V77.86
		c-0.702-0.358-1.404-0.682-2.748-0.682c-3.229,0-5.495,2.889-5.495,6.077c0,3.127,2.268,6.076,5.495,6.076
		c1.826,0,2.606-0.444,3.249-0.873v-4.664l0.92-0.941h-3.168L205.598,83.797z M188.056,88.151v-8.865l6.224,9.894l0.537-0.006
		V78.362l1.021-1.019h-3.087l1.024,1.019v7.522l-5.333-8.541h-2.449l1.005,1.02v9.79l-1.005,1.023h3.092L188.056,88.151z
		 M179.575,77.343l0.942,0.942v9.945l-0.942,0.939h3.185l-0.94-0.939v-9.945l0.94-0.942H179.575L179.575,77.343z M169.066,83.234
		h4.974v4.998l-0.942,0.938h3.188l-0.943-0.938v-9.946l0.943-0.942h-3.188l0.942,0.942v4.067h-4.974v-4.067l0.944-0.942h-3.169
		l0.923,0.942v9.946l-0.923,0.938h3.169l-0.944-0.938V83.234z M163.732,85.884c0-1.164-0.542-1.888-1.103-2.269l-2.408-1.746
		c-0.862-0.621-1.304-1.42-1.304-2.025c0-1.24,1.064-1.685,1.705-1.685c0.339,0,0.58,0.139,0.761,0.139l1.042,1.125l1.103-1.645
		l-2.347-0.444c-0.159-0.039-0.26-0.06-0.559-0.06c-2.067,0-3.009,1.765-3.009,2.909c0,0.9,0.458,1.924,1.521,2.702l2.426,1.747
		c0.661,0.463,0.841,1.145,0.841,1.726c0,1.005-0.62,2.096-1.962,2.096c-0.322,0-0.604-0.062-0.825-0.169l-1.124-1.32l-1.022,1.844
		l2.265,0.444c0,0,0.381,0.077,0.704,0.077C161.867,89.333,163.732,88.13,163.732,85.884 M150.496,79.967l1.625,4.894h-3.31
		L150.496,79.967z M147.646,88.249l0.86-2.507h3.913l0.821,2.507l-0.923,0.924h3.352l-0.944-0.964l-3.689-10.866h-0.601
		l-3.753,10.866l-0.962,0.964h2.846L147.646,88.249z M135.066,89.17l2.707-8.56l2.625,8.56H141l3.427-10.884l0.963-0.942h-2.846
		l0.923,0.922l-2.506,8.18l-2.428-8.18l0.923-0.922h-3.35l0.943,0.942l0.24,0.78l-2.269,7.38l-2.425-8.182l0.922-0.921h-3.348
		l0.962,0.942l3.329,10.885H135.066L135.066,89.17z M117.534,82.08l-0.45,0.433l0.05,0.166h1.382
		c-0.216,1.503-0.415,2.801-0.733,4.902c-0.448,3.112-0.832,4.215-1.149,4.481c-0.101,0.098-0.266,0.148-0.415,0.148
		c-0.201,0-0.518-0.148-0.735-0.25c-0.198-0.102-0.365,0.016-0.465,0.116c-0.132,0.15-0.281,0.384-0.281,0.567
		c0,0.332,0.432,0.5,0.716,0.5c0.316,0,1.117-0.264,1.833-1.148c0.565-0.698,1.329-2.318,1.98-6.082
		c0.118-0.699,0.252-1.398,0.536-3.231l1.698-0.168l0.363-0.432h-1.963c0.499-3.085,0.915-4.017,1.632-4.017
		c0.501,0,0.915,0.199,1.282,0.55c0.118,0.117,0.3,0.117,0.465-0.017c0.132-0.117,0.333-0.383,0.333-0.616
		c0.017-0.333-0.434-0.699-1.002-0.699c-0.967,0-1.98,0.566-2.679,1.398c-0.65,0.786-1.083,2.047-1.318,3.402h-1.081V82.08
		L117.534,82.08z M110.04,86.443c0-2.464,1.246-3.799,1.766-4.016c0.146-0.067,0.382-0.132,0.548-0.132
		c0.833,0,1.317,0.627,1.317,1.912c0.033,2.166-1.101,4.133-1.799,4.366c-0.133,0.044-0.349,0.116-0.514,0.116
		C110.422,88.692,110.04,87.695,110.04,86.443 M112.886,81.681c-0.432,0-1.116,0.198-1.799,0.598c-1.15,0.684-2.4,2.232-2.4,4.565
		c0,1.168,0.549,2.467,2.1,2.467c0.733,0,1.782-0.486,2.483-1.118c1.1-1,1.746-2.716,1.746-4.2
		C115.019,82.611,114.285,81.681,112.886,81.681 M93.581,78.286l2.989,5.392v4.554l-0.941,0.938h3.187l-0.94-0.938v-4.554
		l3.044-5.375l0.983-0.96h-2.927l0.924,0.921l-2.488,4.429l-2.367-4.429l0.923-0.921h-3.349L93.581,78.286z M87.347,88.232V78.221
		h2.246l1.263,1.267v-2.145h-8.323v2.142l1.284-1.265h2.225v10.009l-0.921,0.94h3.167L87.347,88.232z M76.616,77.343l0.943,0.942
		v9.945l-0.943,0.939h3.189l-0.941-0.939v-9.945l0.941-0.942H76.616L76.616,77.343z M73.189,85.884c0-1.164-0.544-1.888-1.103-2.269
		l-2.408-1.746c-0.862-0.621-1.304-1.42-1.304-2.025c0-1.24,1.064-1.685,1.705-1.685c0.341,0,0.581,0.139,0.763,0.139l1.042,1.125
		l1.102-1.645l-2.344-0.444c-0.162-0.04-0.26-0.06-0.56-0.06c-2.067,0-3.008,1.762-3.008,2.91c0,0.899,0.459,1.923,1.524,2.704
		l2.426,1.746c0.662,0.46,0.841,1.143,0.841,1.725c0,1.004-0.622,2.097-1.965,2.097c-0.321,0-0.6-0.063-0.822-0.17l-1.124-1.321
		l-1.023,1.85l2.266,0.443c0,0,0.381,0.078,0.701,0.078C71.324,89.333,73.189,88.13,73.189,85.884 M57.988,78.223h1.443
		c1.263,0,2.267,1.082,2.267,2.368c0,1.222-1.024,2.186-2.267,2.186h-1.443V78.223z M57.988,88.232v-4.574h1.787l2.865,5.512h1.966
		l-0.924-0.932l-2.645-4.853c1.322-0.403,2.225-1.644,2.225-2.767c0-2.004-1.864-3.267-3.831-3.267h-3.668l0.922,0.941v9.946
		l-0.922,0.932h3.165L57.988,88.232z M52.674,89.17v-2.163l-1.265,1.28h-3.588v-4.969h2.667l0.943,0.939v-2.769l-0.943,0.944h-2.667
		v-4.213h3.589l1.266,1.269v-2.145h-7.08l0.923,0.939v9.95l-0.923,0.936h7.079V89.17z M37.333,77.343h-3.35l0.964,0.942
		l3.328,10.884h0.601l3.428-10.884l0.962-0.942h-2.848l0.924,0.92l-2.508,8.18l-2.423-8.18L37.333,77.343z M28.149,77.343
		l0.943,0.942v9.945l-0.943,0.939h3.188l-0.941-0.939v-9.945l0.941-0.942H28.149L28.149,77.343z M17.141,88.151v-8.865l6.347,9.888
		h0.41V78.362l1.024-1.019h-3.088l1.023,1.019v7.522l-5.333-8.541h-2.447l1.003,1.02v9.79l-1.003,1.023h3.087L17.141,88.151z
		 M3.823,86.006c0,1.941,1.646,3.427,3.671,3.427c1.923,0,3.829-1.422,3.829-3.427v-7.645l1.003-1.019H9.239l1.023,1.019v7.645
		c0,1.361-1.082,2.443-2.446,2.443c-1.383,0-2.607-1.062-2.607-2.443v-7.645l1.025-1.019h-3.43l1.021,1.019L3.823,86.006
		L3.823,86.006z"/>
</g>
<polygon fill="#B7A57A" points="280.447,10.767 126.303,10.767 114.303,54.767 280.447,54.767 "/>
<polygon fill="#85754D" points="280.447,10.767 238.532,10.767 224.466,54.767 280.447,54.767 "/>
<polygon fill="#746041" points="240.856,10.767 238.532,10.767 224.466,54.767 226.833,54.767 "/>
<path fill="#FFFFFF" d="M58.46,7.263v9.173h6.447l-7.195,26.799c0,0-8.813-35.473-8.936-35.972h-9.318
	c-0.13,0.486-9.669,35.972-9.669,35.972l-6.627-26.799h6.715V7.263H2.942v9.173h5.969c0,0,10.293,41.2,10.422,41.697h14.457
	c0.128-0.489,6.899-26.237,6.899-26.237c4.296,17.176,4.083,16.089,6.559,26.237h14.465c0.124-0.489,10.963-41.697,10.963-41.697
	h5.92V7.263H58.46z"/>
<polygon fill="#D2D3D4" points="591.551,5.064 583.17,22.69 584.277,22.69 592.658,5.064 "/>
<polygon fill="#919396" points="619.763,3.579 607.651,35.953 608.178,35.953 620.289,3.579 "/>
<polygon fill="#FFFFFF" points="667.909,0 631.271,111.063 632.363,111.063 669,0 "/>
<g>
	<path fill="#FFFFFF" d="M543.088,13.397C543.088,6.01,549.098,0,556.485,0c7.387,0,13.396,6.011,13.396,13.397
		c0,7.389-6.012,13.399-13.396,13.399C549.098,26.797,543.088,20.786,543.088,13.397z M546.104,13.397
		c0,5.727,4.656,10.385,10.396,10.385c5.726,0,10.384-4.658,10.384-10.385c0-5.726-4.658-10.381-10.384-10.381
		C550.76,3.017,546.104,7.673,546.104,13.397z"/>
	
		<rect x="541.166" y="20.096" transform="matrix(0.7067 0.7075 -0.7075 0.7067 178.1701 -376.1822)" fill="#FFFFFF" width="3.363" height="13.455"/>
</g>
<g>
	<path fill="#FFFFFF" d="M550.094,73.526c0-4.187,3.403-7.591,7.591-7.591c4.188,0,7.604,3.406,7.604,7.591
		c0,4.187-3.406,7.593-7.604,7.593C553.497,81.121,550.094,77.712,550.094,73.526z M551.802,73.526c0,3.246,2.646,5.886,5.884,5.886
		c3.244,0,5.896-2.641,5.896-5.886s-2.646-5.882-5.896-5.882C554.439,67.645,551.802,70.283,551.802,73.526z"/>
	
		<rect x="548.994" y="77.416" transform="matrix(0.7063 0.7079 -0.7079 0.7063 218.9968 -365.4402)" fill="#FFFFFF" width="1.901" height="7.62"/>
</g>
<path fill="#8C8C8C" d="M706.624,0.662l0.99,0.147l-8.461,30.856l-0.988-0.148L706.624,0.662z"/>
<circle fill="none" stroke="#C7C7C7" stroke-width="3.75" stroke-miterlimit="10" cx="10.131" cy="151.086" r="7.946"/>
<circle fill="none" stroke="#4B2E83" stroke-width="3.75" stroke-miterlimit="10" cx="10.131" cy="123.362" r="7.946"/>
<circle fill="none" stroke="#C7C7C7" stroke-width="3.75" stroke-miterlimit="10" cx="38.229" cy="151.086" r="7.946"/>
<circle fill="none" stroke="#4B2E83" stroke-width="3.75" stroke-miterlimit="10" cx="38.229" cy="123.362" r="7.946"/>
<circle fill="#4B2E83" cx="38.229" cy="123.362" r="2.792"/>
<circle fill="#C7C7C7" cx="38.229" cy="151.086" r="2.792"/>
</svg>
